<svg width="150" height="150" viewBox="0 0 150 150" fill="none" xmlns="http://www.w3.org/2000/svg">
<rect width="150" height="150" rx="75" fill="#0F1729"/>
<path d="M87.0682 35.1818H108.195V85.0341C108.195 90.9616 106.776 96.0913 103.939 100.423C101.127 104.729 97.2008 108.06 92.1598 110.416C87.1188 112.747 81.2673 113.912 74.6051 113.912C67.8923 113.912 62.0154 112.747 56.9744 110.416C51.9335 108.06 48.0071 104.729 45.1953 100.423C42.4089 96.0913 41.0156 90.9616 41.0156 85.0341V35.1818H62.142V83.2102C62.142 85.6167 62.674 87.7699 63.7379 89.6697C64.8018 91.5443 66.2711 93.0135 68.1456 94.0774C70.0455 95.1413 72.1986 95.6733 74.6051 95.6733C77.0369 95.6733 79.1901 95.1413 81.0646 94.0774C82.9392 93.0135 84.4084 91.5443 85.4723 89.6697C86.5362 87.7699 87.0682 85.6167 87.0682 83.2102V35.1818Z" fill="#0784C9"/>
</svg>
