<?xml version="1.0" encoding="UTF-8"?>
<svg version="1.1" xmlns="http://www.w3.org/2000/svg" width="540" height="188">
<path d="M0 0 C2.9375 2.625 2.9375 2.625 5 5 C5.495 5.495 5.495 5.495 6 6 C6.33 3.36 6.66 0.72 7 -2 C14.26 -2 21.52 -2 29 -2 C29.09074739 6.93687296 29.16397158 15.87343467 29.20724869 24.81066608 C29.22803052 28.96159948 29.25617348 33.11219846 29.30175781 37.26293945 C29.3455548 41.27652919 29.36920763 45.28979939 29.37950897 49.30360985 C29.38684017 50.82687591 29.40115459 52.35012658 29.42292023 53.87325478 C29.55473749 63.48926098 29.59850561 73.32894462 23.24664307 81.16230774 C15.54837951 88.98640079 5.43033865 90.38251749 -5.0625 90.5 C-15.24430739 90.39518867 -24.01283246 88.82501322 -31.62890625 81.57421875 C-35.13731235 77.54604878 -36.14949765 74.21482994 -36 69 C-32.75264401 68.68644676 -29.50324669 68.43171755 -26.25 68.1875 C-25.32960937 68.09791016 -24.40921875 68.00832031 -23.4609375 67.91601562 C-20.88613117 67.73876446 -18.55599373 67.63298843 -16 68 C-13.546875 70.42578125 -13.546875 70.42578125 -12 73 C-6.91602433 74.69465856 -1.90689304 74.87399264 3 72.625 C5.09716677 71.14913969 5.09716677 71.14913969 6 69 C6.07092842 66.7927077 6.08415025 64.58332548 6.0625 62.375 C6.05347656 61.18648438 6.04445312 59.99796875 6.03515625 58.7734375 C6.02355469 57.85820312 6.01195312 56.94296875 6 56 C5.0925 56.94875 4.185 57.8975 3.25 58.875 C-2.11144604 63.4550207 -8.59341614 64.28318172 -15.4921875 63.83984375 C-23.11518483 62.48142035 -28.92096927 58.9555473 -33.375 52.625 C-37.65452365 46.05031282 -38.36580502 39.32458691 -38.3125 31.6875 C-38.30686035 30.84662842 -38.3012207 30.00575684 -38.29541016 29.1394043 C-38.06934997 17.57788039 -34.95637513 9.79962842 -26.625 1.6875 C-18.07659048 -3.80790612 -9.11448259 -4.96622449 0 0 Z M-12 17 C-16.32776328 22.82009545 -16.59092223 28.96169413 -16 36 C-15.13614694 39.77935716 -13.84914733 42.9548956 -11.375 46 C-7.59588306 47.59120713 -4.02838194 47.64741853 0 47 C4.12113168 44.63254137 5.57269212 42.44397606 7 38 C7.60956819 32.00355011 8.20537485 25.31993773 5.375 19.8125 C2.76820433 16.72550513 0.78381666 15.36861454 -3 14 C-6.81307353 14 -8.74828878 15.03542447 -12 17 Z " fill="#0683C9" transform="translate(231,72)"/>
<path d="M0 0 C7.26 0 14.52 0 22 0 C24.43704364 9.23511275 26.3948798 18.53574597 28.28588867 27.89648438 C28.59683472 29.42112305 28.59683472 29.42112305 28.9140625 30.9765625 C29.1917749 32.35448975 29.1917749 32.35448975 29.47509766 33.76025391 C29.91357199 36.01991867 29.91357199 36.01991867 31 38 C31.23710693 36.95545654 31.47421387 35.91091309 31.71850586 34.8347168 C32.5984995 30.9598592 33.48046922 27.08545364 34.36303711 23.21118164 C34.7447618 21.53422109 35.12595029 19.85713839 35.5065918 18.17993164 C36.0537656 15.76937065 36.6028654 13.35925533 37.15234375 10.94921875 C37.3221727 10.19912033 37.49200165 9.44902191 37.66697693 8.67619324 C38.33974986 5.73237523 39.04436756 2.86689733 40 0 C46.93 0 53.86 0 61 0 C62.63211171 4.08027927 63.72126278 7.69319432 64.69140625 11.9453125 C64.91666237 12.92284988 64.91666237 12.92284988 65.14646912 13.9201355 C65.62226415 15.98757728 66.09266786 18.05619576 66.5625 20.125 C67.0367939 22.20072766 67.5122379 24.27618144 67.98924255 26.35128784 C68.42034954 28.22861745 68.84807915 30.10672168 69.27563477 31.98486328 C69.95968279 35.02216508 69.95968279 35.02216508 71 38 C73.64 25.46 76.28 12.92 79 0 C86.26 0 93.52 0 101 0 C99.64513667 7.99539191 97.86907968 15.76534763 95.77734375 23.59765625 C95.47180069 24.75373886 95.16625763 25.90982147 94.85145569 27.10093689 C94.2105217 29.52249682 93.56754506 31.94351696 92.92260742 34.36401367 C91.93234208 38.0818649 90.9490833 41.80151797 89.96679688 45.52148438 C89.34155333 47.88031638 88.7159165 50.23904419 88.08984375 52.59765625 C87.79504623 53.71213638 87.50024872 54.82661652 87.19651794 55.97486877 C86.92275833 57.00031296 86.64899872 58.02575714 86.36694336 59.08227539 C86.00626015 60.43815514 86.00626015 60.43815514 85.63829041 61.82142639 C85 64 85 64 84 66 C76.41 66 68.82 66 61 66 C59.15076316 61.06870176 57.50722623 56.55557069 56.17578125 51.53125 C55.71655273 49.81035156 55.71655273 49.81035156 55.24804688 48.0546875 C54.93931641 46.88164063 54.63058594 45.70859375 54.3125 44.5 C53.99216797 43.29601562 53.67183594 42.09203125 53.34179688 40.8515625 C52.55758247 37.90197996 51.77708773 34.95146657 51 32 C48.17664435 39.0192965 46.23655032 46.18941214 44.3125 53.5 C43.99216797 54.70398438 43.67183594 55.90796875 43.34179688 57.1484375 C42.55758758 60.09800081 41.77829632 63.04887094 41 66 C33.08 66 25.16 66 17 66 C6.0183913 25.18046161 6.0183913 25.18046161 2.3125 11.0625 C2.06935059 10.14267334 1.82620117 9.22284668 1.57568359 8.27514648 C0 2.23818293 0 2.23818293 0 0 Z " fill="#0783C9" transform="translate(387,70)"/>
<path d="M0 0 C7.26 0 14.52 0 22 0 C22.01458252 1.75586426 22.02916504 3.51172852 22.04418945 5.32080078 C22.09593382 11.13638416 22.16124483 16.9517311 22.23571491 22.76706123 C22.2803529 26.2912986 22.31962297 29.81542212 22.34643555 33.33984375 C22.37753348 37.39612711 22.43231962 41.4517954 22.48828125 45.5078125 C22.49467117 46.76739777 22.5010611 48.02698303 22.50764465 49.32473755 C22.52743881 50.50550873 22.54723297 51.68627991 22.56762695 52.90283203 C22.57873001 53.93763702 22.58983307 54.97244202 22.60127258 56.03860474 C23.24565057 60.82447558 25.02012836 64.06912194 28.5 67.375 C33.40924556 69.65429258 37.67466573 69.77661125 43 69 C48.09801568 66.63306415 49.84437508 64.08351715 52 59 C52.46312655 56.0186108 52.46312655 56.0186108 52.43237305 52.90283203 C52.45216721 51.72206085 52.47196136 50.54128967 52.49235535 49.32473755 C52.49874527 48.06515228 52.50513519 46.80556702 52.51171875 45.5078125 C52.52966995 44.20673553 52.54762115 42.90565857 52.56611633 41.56515503 C52.61344821 38.12277213 52.64336555 34.680454 52.66955566 31.237854 C52.69944672 27.7183351 52.74594743 24.19903899 52.79101562 20.6796875 C52.87685702 13.7865707 52.94274994 6.89341298 53 0 C60.26 0 67.52 0 75 0 C75.09081509 8.02421195 75.16400939 16.04801608 75.20724869 24.07260609 C75.22801431 27.79982092 75.25612611 31.52666219 75.30175781 35.25366211 C75.3456147 38.85877272 75.36921972 42.46352685 75.37950897 46.0688839 C75.38682972 47.435855 75.4011229 48.80280933 75.42292023 50.16962624 C75.59562959 61.46129025 74.30380829 71.76675451 66.16796875 80.21484375 C56.68213003 88.02570554 45.4644737 90.42943496 33.4375 89.875 C22.85290857 88.77349348 13.18803259 85.22795004 6.24609375 76.89453125 C-0.35818319 67.64854353 -0.28195048 58.69215381 -0.1953125 47.65625 C-0.19157576 46.27763068 -0.18873191 44.89900868 -0.18673706 43.52038574 C-0.17915258 39.91679366 -0.15954962 36.31336645 -0.1373291 32.70983887 C-0.11675802 29.02272775 -0.10771142 25.33558963 -0.09765625 21.6484375 C-0.07629799 14.43220831 -0.04115915 7.21614839 0 0 Z " fill="#0684C8" transform="translate(6,48)"/>
<path d="M0 0 C4.84838328 4.47071974 7.57672303 9.50770856 8.24273682 16.13200378 C8.32582129 19.10033104 8.31804958 22.05428938 8.2734375 25.0234375 C8.26919266 26.09972412 8.26494781 27.17601074 8.26057434 28.28491211 C8.243879 31.6980162 8.20624318 35.11051405 8.16796875 38.5234375 C8.15291012 40.84764768 8.13922378 43.17186718 8.12695312 45.49609375 C8.09656662 51.17229236 8.03782602 56.84719213 7.98046875 62.5234375 C1.05046875 62.5234375 -5.87953125 62.5234375 -13.01953125 62.5234375 C-13.05691406 59.78933594 -13.09429687 57.05523437 -13.1328125 54.23828125 C-13.17909793 51.57389583 -13.23030599 48.909647 -13.28198242 46.24536133 C-13.31512151 44.40169662 -13.34318738 42.55793314 -13.3659668 40.71411133 C-13.39971637 38.05507542 -13.45204091 35.39693563 -13.5078125 32.73828125 C-13.51420242 31.92133286 -13.52059235 31.10438446 -13.5271759 30.26268005 C-13.66121243 24.97899479 -14.56721227 21.22679125 -17.01953125 16.5234375 C-19.04634201 14.72182793 -20.27294166 14.51890356 -22.94921875 14.53515625 C-26.09050359 14.79405335 -28.35851813 15.05433141 -30.95703125 16.8984375 C-32.82039485 19.74828771 -33.15358246 22.31867229 -33.22485352 25.62768555 C-33.24479874 26.44830978 -33.26474396 27.26893402 -33.28529358 28.11442566 C-33.31036232 29.4364373 -33.31036232 29.4364373 -33.3359375 30.78515625 C-33.3567186 31.69094925 -33.37749969 32.59674225 -33.39891052 33.52998352 C-33.46429683 36.42355766 -33.52324029 39.31722257 -33.58203125 42.2109375 C-33.62522685 44.17253543 -33.66884148 46.13412418 -33.71289062 48.09570312 C-33.82075568 52.90485624 -33.91991032 57.71407823 -34.01953125 62.5234375 C-41.27953125 62.5234375 -48.53953125 62.5234375 -56.01953125 62.5234375 C-56.01953125 40.7434375 -56.01953125 18.9634375 -56.01953125 -3.4765625 C-49.08953125 -3.4765625 -42.15953125 -3.4765625 -35.01953125 -3.4765625 C-34.68953125 -0.5065625 -34.35953125 2.4634375 -34.01953125 5.5234375 C-33.31828125 4.5953125 -32.61703125 3.6671875 -31.89453125 2.7109375 C-24.13794042 -6.60576083 -9.48988489 -6.93844582 0 0 Z " fill="#0683C8" transform="translate(149.01953125,73.4765625)"/>
<path d="M0 0 C7.11122025 7.23073656 9.8385481 16.16070829 10.25 26.125 C10.06049577 36.37545593 7.12050275 45.49207778 0 53 C-8.20648681 59.53806057 -17.61711115 62.04159554 -28 61 C-37.81977779 59.45429424 -43.80652043 56.19347957 -50.75 49.25 C-57.52253218 39.46745352 -58.23786392 29.60124982 -57 18 C-55.11772387 8.52179299 -50.05041075 1.55595876 -42.125 -3.875 C-28.82256196 -11.47273865 -11.83584416 -9.09830197 0 0 Z M-33 14 C-36.18536693 20.42661749 -35.98717882 28.40344863 -34.5 35.328125 C-32.96154941 39.34907541 -30.68526915 41.85740166 -27 44 C-23.52089775 44.50736908 -21.55017478 44.23030572 -18.3125 42.875 C-13.87357879 39.2758747 -12.85531423 35.17585835 -12.1875 29.6875 C-11.75706664 23.09648917 -12.29121152 17.56318272 -16 12 C-18.82429156 9.17570844 -19.71016208 9.02850865 -23.8125 8.625 C-28.40597623 8.68335632 -30.2165317 10.31599783 -33 14 Z " fill="#0783C9" transform="translate(374,77)"/>
<path d="M0 0 C14.21323633 0.5121887 27.26536726 3.7448804 37.375 14.25 C41.17344426 18.97695285 43 24.97166171 43 31 C48.60583638 33.61938199 48.60583638 33.61938199 54.4375 32.6875 C58.55616882 30.19394268 59.3946033 27.0495032 60.92578125 22.65625 C64.59973572 13.57156257 72.90891605 6.12270752 81.75 2.125 C87.07079193 0.28318741 91.6761995 -0.11517571 97.3125 -0.0625 C98.56675781 -0.05347656 99.82101563 -0.04445313 101.11328125 -0.03515625 C102.06589844 -0.02355469 103.01851563 -0.01195313 104 0 C104.61150288 7.58263566 103.3336496 12.69281044 99 19 C90.08827427 29.40307575 78.77063479 32.38541218 65.6640625 33.4453125 C61.88039916 34.01810588 59.33353939 35.18081184 56 37 C55.34 37 54.68 37 54 37 C54 59.11 54 81.22 54 104 C51.69 104 49.38 104 47 104 C47 81.89 47 59.78 47 37 C45.02 36.34 43.04 35.68 41 35 C40.01 34.505 40.01 34.505 39 34 C36.66950081 33.70577448 34.33545224 33.43940866 32 33.1875 C21.54511633 31.88453597 13.11218894 29.09999296 6 21 C1.7542471 14.58082598 -0.12884105 7.66604248 0 0 Z " fill="#249ECD" transform="translate(126,32)"/>
<path d="M0 0 C0 6.27 0 12.54 0 19 C-4.83398438 18.85351562 -4.83398438 18.85351562 -9.66796875 18.70703125 C-13.35258031 19.03100061 -15.11512861 19.71977306 -18 22 C-19.67800945 24.77900983 -20.25755489 26.89789074 -20.31884766 30.12597656 C-20.33871735 30.92650452 -20.35858704 31.72703247 -20.37905884 32.55181885 C-20.39638565 33.83327789 -20.39638565 33.83327789 -20.4140625 35.140625 C-20.43342865 36.02280701 -20.4527948 36.90498901 -20.4727478 37.81390381 C-20.53242848 40.62583816 -20.57888283 43.4378137 -20.625 46.25 C-20.66319038 48.15887181 -20.70224273 50.06772659 -20.7421875 51.9765625 C-20.83973998 56.65095198 -20.91939939 61.32516451 -21 66 C-28.26 66 -35.52 66 -43 66 C-43 44.22 -43 22.44 -43 0 C-36.07 0 -29.14 0 -22 0 C-21.67 2.64 -21.34 5.28 -21 8 C-20.62488281 7.51789063 -20.24976563 7.03578125 -19.86328125 6.5390625 C-14.33773358 -0.28088299 -8.89984586 -2.96661529 0 0 Z " fill="#0683C8" transform="translate(315,70)"/>
<path d="M0 0 C6.34699874 2.84520633 9.71674733 7.80080259 12.3125 14.125 C16.45316132 25.06193664 15.36754211 34.26870788 11 45 C8.30553584 49.56041661 4.88919427 53.40997452 1 57 C-6.85562418 50.39941637 -12.26110022 41.25805353 -13.30859375 30.96875 C-13.73167166 19.58410798 -10.52317789 11.83851608 -3.125 3.25 C-2.09622269 2.15441897 -1.0595648 1.06583441 0 0 Z " fill="#219AC9" transform="translate(177,0)"/>
<path d="M0 0 C6 0 6 0 7.79516602 1.63305664 C8.27655029 2.38449951 8.75793457 3.13594238 9.25390625 3.91015625 C9.79853516 4.73580078 10.34316406 5.56144531 10.90429688 6.41210938 C11.45150391 7.28673828 11.99871094 8.16136719 12.5625 9.0625 C13.66750946 10.76201747 14.77297136 12.46124085 15.87890625 14.16015625 C16.3591626 14.91949463 16.83941895 15.67883301 17.33422852 16.46118164 C19.46218802 19.70442522 21.74536209 22.84350693 24 26 C24.33 17.42 24.66 8.84 25 0 C26.98 0 28.96 0 31 0 C31 12.54 31 25.08 31 38 C25 38 25 38 23.05078125 36.15625 C22.47714844 35.2796875 21.90351563 34.403125 21.3125 33.5 C20.64863281 32.51386719 19.98476563 31.52773437 19.30078125 30.51171875 C18.94064941 29.95919434 18.58051758 29.40666992 18.20947266 28.83740234 C16.40247209 26.09224969 14.52276361 23.39844346 12.64916992 20.69848633 C10.42050936 17.47410444 8.21236535 14.23558433 6 11 C5.67 19.91 5.34 28.82 5 38 C3.35 38 1.7 38 0 38 C0 25.46 0 12.92 0 0 Z " fill="#003A70" transform="translate(417,150)"/>
<path d="M0 0 C1.4540625 0.0309375 1.4540625 0.0309375 2.9375 0.0625 C4.7929647 5.15136246 6.64427139 10.24171046 8.49169922 15.33349609 C9.12108423 17.06633567 9.75161416 18.79875984 10.38330078 20.53076172 C11.2897821 23.01682587 12.19216866 25.50434284 13.09375 27.9921875 C13.37810913 28.76932098 13.66246826 29.54645447 13.95544434 30.34713745 C15.9375 35.83475659 15.9375 35.83475659 15.9375 38.0625 C13.9575 38.0625 11.9775 38.0625 9.9375 38.0625 C8.4525 33.1125 8.4525 33.1125 6.9375 28.0625 C1.9875 28.0625 -2.9625 28.0625 -8.0625 28.0625 C-9.0525 31.3625 -10.0425 34.6625 -11.0625 38.0625 C-13.0425 38.0625 -15.0225 38.0625 -17.0625 38.0625 C-14.76350598 29.88633408 -11.90396786 21.95475026 -8.9375 14 C-8.48246094 12.76572266 -8.02742188 11.53144531 -7.55859375 10.25976562 C-3.7772574 0.07708689 -3.7772574 0.07708689 0 0 Z M-1.0625 7.0625 C-2.7125 12.3425 -4.3625 17.6225 -6.0625 23.0625 C-2.4325 23.0625 1.1975 23.0625 4.9375 23.0625 C3.34365011 17.70136855 1.7481711 12.35523092 -0.0625 7.0625 C-0.3925 7.0625 -0.7225 7.0625 -1.0625 7.0625 Z " fill="#003B70" transform="translate(329.0625,149.9375)"/>
<path d="M0 0 C7.59 0 15.18 0 23 0 C23 1.65 23 3.3 23 5 C17.06 5 11.12 5 5 5 C5 8.96 5 12.92 5 17 C10.61 17 16.22 17 22 17 C22 18.65 22 20.3 22 22 C16.39 22 10.78 22 5 22 C5 25.63 5 29.26 5 33 C10.94 33 16.88 33 23 33 C23.33 34.65 23.66 36.3 24 38 C16.08 38 8.16 38 0 38 C0 25.46 0 12.92 0 0 Z " fill="#003A70" transform="translate(384,150)"/>
<path d="M0 0 C1.98 0 3.96 0 6 0 C6 10.89 6 21.78 6 33 C11.61 33 17.22 33 23 33 C23 34.65 23 36.3 23 38 C15.41 38 7.82 38 0 38 C0 25.46 0 12.92 0 0 Z " fill="#003A70" transform="translate(352,150)"/>
<path d="M0 0 C9.57 0 19.14 0 29 0 C29 1.65 29 3.3 29 5 C25.04 5 21.08 5 17 5 C17 15.89 17 26.78 17 38 C15.35 38 13.7 38 12 38 C12 27.11 12 16.22 12 5 C8.04 5 4.08 5 0 5 C0 3.35 0 1.7 0 0 Z " fill="#003A70" transform="translate(456,150)"/>
<path d="M0 0 C9.57 0 19.14 0 29 0 C29 1.65 29 3.3 29 5 C25.04 5 21.08 5 17 5 C17 15.89 17 26.78 17 38 C15.35 38 13.7 38 12 38 C12 27.11 12 16.22 12 5 C8.04 5 4.08 5 0 5 C0 3.35 0 1.7 0 0 Z " fill="#003A70" transform="translate(282,150)"/>
<path d="M0 0 C0.41776675 6.05761794 0.12264203 9.19025097 -4 14 C-7.19393927 16.34222213 -10.1115169 16.33812896 -14 16 C-16 14 -16 14 -16.4375 11.1875 C-16 8 -16 8 -14.0625 5.3125 C-10.0168605 2.25762936 -5.17587495 0 0 0 Z " fill="#31AACF" transform="translate(214,14)"/>
</svg>
